<!-- <svg xmlns="http://www.w3.org/2000/svg" fill="none" viewBox="0 0 394 80"><path fill="#000" d="M262 0h68.5v12.7h-27.2v66.6h-13.6V12.7H262V0ZM149 0v12.7H94v20.4h44.3v12.6H94v21h55v12.6H80.5V0h68.7zm34.3 0h-17.8l63.8 79.4h17.9l-32-39.7 32-39.6h-17.9l-23 28.6-23-28.6zm18.3 56.7-9-11-27.1 33.7h17.8l18.3-22.7z"/><path fill="#000" d="M81 79.3 17 0H0v79.3h13.6V17l50.2 62.3H81Zm252.6-.4c-1 0-1.8-.4-2.5-1s-1.1-1.6-1.1-2.6.3-1.8 1-2.5 1.6-1 2.6-1 1.8.3 2.5 1a3.4 3.4 0 0 1 .6 4.3 3.7 3.7 0 0 1-3 1.8zm23.2-33.5h6v23.3c0 2.1-.4 4-1.3 5.5a9.1 9.1 0 0 1-3.8 3.5c-1.6.8-3.5 1.3-5.7 1.3-2 0-3.7-.4-5.3-1s-2.8-1.8-3.7-3.2c-.9-1.3-1.4-3-1.4-5h6c.1.8.3 1.6.7 2.2s1 1.2 1.6 1.5c.7.4 1.5.5 2.4.5 1 0 1.8-.2 2.4-.6a4 4 0 0 0 1.6-1.8c.3-.8.5-1.8.5-3V45.5zm30.9 9.1a4.4 4.4 0 0 0-2-3.3 7.5 7.5 0 0 0-4.3-1.1c-1.3 0-2.4.2-3.3.5-.9.4-1.6 1-2 1.6a3.5 3.5 0 0 0-.3 4c.3.5.7.9 1.3 1.2l1.8 1 2 .5 3.2.8c1.3.3 2.5.7 3.7 1.2a13 13 0 0 1 3.2 1.8 8.1 8.1 0 0 1 3 6.5c0 2-.5 3.7-1.5 5.1a10 10 0 0 1-4.4 3.5c-1.8.8-4.1 1.2-6.8 1.2-2.6 0-4.9-.4-6.8-1.2-2-.8-3.4-2-4.5-3.5a10 10 0 0 1-1.7-5.6h6a5 5 0 0 0 3.5 4.6c1 .4 2.2.6 3.4.6 1.3 0 2.5-.2 3.5-.6 1-.4 1.8-1 2.4-1.7a4 4 0 0 0 .8-2.4c0-.9-.2-1.6-.7-2.2a11 11 0 0 0-2.1-1.4l-3.2-1-3.8-1c-2.8-.7-5-1.7-6.6-3.2a7.2 7.2 0 0 1-2.4-5.7 8 8 0 0 1 1.7-5 10 10 0 0 1 4.3-3.5c2-.8 4-1.2 6.4-1.2 2.3 0 4.4.4 6.2 1.2 1.8.8 3.2 2 4.3 3.4 1 1.4 1.5 3 1.5 5h-5.8z"/></svg>
 -->

 <svg version="1.1" id="Layer_1" xmlns="http://www.w3.org/2000/svg" xmlns:xlink="http://www.w3.org/1999/xlink" x="0px" y="0px"
	 width="100%" viewBox="0 0 1024 1024" enable-background="new 0 0 1024 1024" xml:space="preserve">
<path fill="#000000" opacity="1.000000" stroke="none" 
	d="
M678.000000,1025.000000 
	C452.000000,1025.000000 226.500000,1025.000000 1.000000,1025.000000 
	C1.000000,683.666687 1.000000,342.333344 1.000000,1.000000 
	C342.333344,1.000000 683.666687,1.000000 1025.000000,1.000000 
	C1025.000000,342.333344 1025.000000,683.666687 1025.000000,1025.000000 
	C909.500000,1025.000000 794.000000,1025.000000 678.000000,1025.000000 
M377.841156,567.358582 
	C377.237274,566.224731 376.633392,565.090881 376.024689,564.009827 
	C376.024689,564.009827 376.059509,563.969543 376.018311,563.203064 
	C373.342010,555.808105 370.665710,548.413208 367.765839,540.481079 
	C367.702911,540.297607 367.639984,540.114136 367.788544,539.160522 
	C364.134338,522.693909 363.004791,506.093292 365.014557,489.304810 
	C365.508698,485.177002 366.633118,481.936676 370.982452,479.988281 
	C383.069946,474.573273 394.785889,468.306580 406.970825,463.135712 
	C437.831360,450.039612 470.031311,442.243378 503.594971,441.014893 
	C518.646362,440.463989 533.829407,440.033569 548.788757,441.375763 
	C565.208679,442.849060 581.699646,445.383057 597.685608,449.360138 
	C616.516724,454.045105 634.851929,460.734955 653.367859,466.662537 
	C656.018921,467.511230 658.435913,469.065552 661.037476,470.101898 
	C663.588135,471.117950 666.236084,471.889709 668.841370,472.768707 
	C629.500977,444.045135 585.448669,429.264374 536.743469,426.184021 
	C527.935608,426.087311 519.127808,425.972473 510.319641,425.940857 
	C509.815277,425.939026 509.308472,426.616455 507.899628,427.069733 
	C496.235077,428.029388 484.350433,427.904449 472.960175,430.215820 
	C457.795410,433.293060 442.979980,438.144073 428.078674,442.454865 
	C406.901031,448.581360 388.238159,459.784180 370.392670,472.289429 
	C364.673706,476.296967 360.228790,482.122711 354.461243,487.119019 
	C349.173553,492.601990 343.733154,497.950623 338.707245,503.663910 
	C337.474945,505.064728 337.239319,507.642700 337.154480,509.704559 
	C336.526306,524.974670 338.368683,539.901489 342.919891,554.567017 
	C348.710632,573.226746 356.975891,590.527405 369.263916,605.798096 
	C377.781342,616.382935 386.558105,626.768433 394.790405,637.569641 
	C399.480652,643.723511 403.770782,650.201355 403.230225,658.761841 
	C402.727814,666.717834 402.936035,674.727783 403.046692,682.710999 
	C403.176086,692.046021 406.882935,699.960022 414.337036,705.458130 
	C419.413605,709.202637 425.006470,712.899719 432.558838,711.693909 
	C433.877960,711.806824 435.196991,712.017029 436.516174,712.018005 
	C454.680817,712.031494 472.845490,712.015625 491.010132,712.007935 
	C530.334778,711.991394 569.659485,711.975342 609.762817,711.877441 
	C624.238708,709.206665 635.516968,696.717957 635.680542,683.433472 
	C635.703735,673.392395 635.726990,663.351257 635.904236,652.507690 
	C637.951477,641.198853 646.128723,633.664001 653.174683,625.707947 
	C669.228394,607.580627 683.126831,588.249939 691.981262,565.493530 
	C699.501221,546.166748 703.099609,526.289612 701.791138,505.582825 
	C701.682800,503.868225 701.068787,501.790558 699.934753,500.601654 
	C693.858704,494.231628 687.608032,488.022980 681.274536,481.906799 
	C679.119690,479.825897 676.547729,478.176941 673.034851,475.453308 
	C673.238464,478.671631 673.291260,480.555084 673.487244,482.423492 
	C674.330750,490.462250 675.992798,498.507812 675.876465,506.529449 
	C675.750671,515.209351 674.626953,524.005493 672.788147,532.501953 
	C669.235413,548.918884 663.614441,564.758606 653.700500,578.472351 
	C643.605225,592.436951 632.643433,605.776062 622.027344,619.362732 
	C616.180054,626.846191 612.436951,635.240417 612.016418,644.741150 
	C611.633667,653.387146 611.950378,662.064209 611.961426,670.727539 
	C611.969116,676.713806 610.289673,678.674194 603.046387,679.961609 
	C581.318115,680.071655 559.589844,680.181702 537.001099,680.252930 
	C534.465088,680.267395 531.929016,680.281860 528.429077,680.139709 
	C525.833313,680.189392 523.237488,680.239075 519.764771,680.251648 
	C491.257141,680.231567 462.749481,680.211487 433.518036,679.971680 
	C429.605743,679.032043 427.711792,676.232727 426.696686,671.711853 
	C426.763153,661.972778 426.850372,652.233704 426.857697,642.494629 
	C426.858276,641.695557 426.314972,640.896179 425.969025,639.308289 
	C423.749451,628.697937 417.730530,620.335876 410.901489,612.163147 
	C401.058167,600.383057 391.914337,588.018372 382.672668,575.396851 
	C381.109436,572.944946 379.546234,570.493042 377.977600,567.988953 
	C377.977600,567.988953 377.932129,568.015076 377.841156,567.358582 
M454.432526,553.418457 
	C454.281982,554.721375 453.998505,556.024475 454.000793,557.327087 
	C454.035461,577.183655 454.107513,597.040100 454.047150,617.819153 
	C454.047150,621.557251 454.047150,625.295349 454.047150,629.655212 
	C457.672668,629.183716 460.440826,628.844238 463.202881,628.460815 
	C473.720917,627.000732 484.207062,625.208313 494.768585,624.214294 
	C498.981293,623.817749 500.095520,622.455444 500.026062,618.506226 
	C499.829895,607.347900 499.736664,596.176758 500.097778,585.026672 
	C500.196869,581.967834 502.036133,578.965332 503.996887,576.056824 
	C514.633728,576.015686 525.270508,575.974548 536.508972,576.330139 
	C537.416260,577.981201 538.323547,579.632202 539.159607,582.173218 
	C539.187561,593.674622 539.215515,605.176086 539.099060,617.581543 
	C538.275024,622.102051 539.707336,623.775696 544.730469,624.243958 
	C556.185730,625.311890 567.532593,627.505432 578.955811,628.992676 
	C580.812378,629.234436 582.834839,628.201538 584.855896,626.861023 
	C584.869995,606.627869 584.884155,586.394653 584.927368,565.229431 
	C584.587891,561.494507 584.248413,557.759521 583.739746,553.369141 
	C582.864197,552.175720 582.164978,550.784973 581.085144,549.820190 
	C572.627930,542.264099 564.019043,534.876709 555.609680,527.268311 
	C544.978577,517.649597 534.565308,507.789124 523.877197,498.235260 
	C521.867981,496.439270 519.369080,493.713226 516.089294,496.443207 
	C512.796814,499.183838 509.506287,501.940399 506.388489,504.874481 
	C500.115601,510.777771 494.064972,516.919922 487.723267,522.746582 
	C482.881897,527.194702 477.570160,531.133545 472.763306,535.615967 
	C466.868469,541.112915 461.281616,546.940247 455.338745,552.736938 
	C455.338745,552.736938 455.151886,552.902405 454.432526,553.418457 
M571.000000,864.003296 
	C571.000000,864.003296 571.039978,864.044067 571.595886,863.486694 
	C572.454102,858.923279 568.814636,861.143860 567.470032,861.136902 
	C535.939331,860.973511 504.407745,860.973267 472.876343,861.006348 
	C471.312622,861.007996 469.749481,861.580933 468.092224,862.627869 
	C471.916687,867.687317 474.800751,874.067383 479.729034,877.576782 
	C500.677216,892.494019 523.440918,895.499756 547.465576,885.223755 
	C557.187988,881.065186 565.000122,874.745605 570.540833,865.015198 
	C570.712830,864.675964 570.884766,864.336670 571.000000,864.003296 
M736.636841,810.357117 
	C734.774963,809.895020 732.913147,809.432861 730.766174,808.415894 
	C730.171143,808.244995 729.576050,808.074097 728.586548,807.287659 
	C711.119568,802.045898 693.831665,796.059998 676.128540,791.799438 
	C662.147461,788.434692 647.710571,786.033813 633.374329,785.355103 
	C620.832214,784.761230 608.123657,786.944519 595.539612,788.355347 
	C590.874695,788.878418 586.354675,790.694580 581.768616,791.921021 
	C596.172302,794.690247 610.353210,796.378784 624.533203,798.074524 
	C632.691284,799.050171 640.855347,799.981140 649.003174,801.036804 
	C655.663391,801.899719 662.303467,802.917419 669.774719,804.033813 
	C674.583679,805.020996 679.374817,806.107117 684.205078,806.976196 
	C696.936035,809.266907 709.706360,811.344788 722.418884,813.731323 
	C734.553711,816.009521 746.635498,818.570068 758.740540,821.006531 
	C758.951294,820.376343 759.162048,819.746155 759.372742,819.115967 
	C751.922485,816.401855 744.472168,813.687744 736.636841,810.357117 
M322.986603,803.967224 
	C322.986603,803.967224 322.967926,803.905151 322.200287,803.958618 
	C311.481873,807.982483 300.763458,812.006409 290.045074,816.030273 
	C290.276581,816.851929 290.508118,817.673584 290.739624,818.495239 
	C318.882355,815.127502 346.335846,807.485046 374.421783,803.757507 
	C402.554657,800.023743 430.677856,796.217285 458.805328,792.442688 
	C458.825531,792.153198 458.845764,791.863770 458.865997,791.574341 
	C456.582306,790.949646 454.298615,790.325012 451.488861,789.105957 
	C445.970978,788.372620 440.368286,788.025574 434.950409,786.836548 
	C415.328918,782.530334 395.898376,785.672607 376.571716,788.499634 
	C366.124023,790.027954 355.874146,793.191956 345.691925,796.156799 
	C338.342407,798.296875 331.251495,801.324890 323.865997,803.538757 
	C323.551788,803.676880 323.237579,803.815002 322.986603,803.967224 
M404.002563,321.002136 
	C404.002563,321.002136 403.995300,320.997314 403.857910,321.706512 
	C400.133789,329.990204 396.161346,338.173615 392.762573,346.588684 
	C389.944733,353.565552 387.802856,360.815491 385.176270,368.424194 
	C385.110870,368.582642 385.045441,368.741089 384.512299,369.124451 
	C384.345764,369.417908 384.179230,369.711395 384.125061,370.716339 
	C384.247192,371.180725 384.369324,371.645081 383.999908,372.689575 
	C383.715515,373.282745 383.312561,373.847717 383.164032,374.473145 
	C379.477020,389.997314 375.328094,405.434021 372.321136,421.089813 
	C370.265808,431.790863 369.809692,442.799042 368.518372,454.785828 
	C371.010071,452.784332 372.644196,451.471741 374.961212,450.057983 
	C380.679016,446.713196 386.301361,443.191010 392.131531,440.055084 
	C414.390320,428.082703 437.906738,419.412231 462.605408,414.098267 
	C488.742126,408.474854 515.228882,405.777832 541.827515,408.980896 
	C559.668335,411.129364 577.660889,413.920197 594.866272,418.905853 
	C611.926514,423.849426 628.361877,431.301239 644.569702,438.745239 
	C664.949097,448.105103 682.929077,461.089386 697.626099,478.288910 
	C698.306396,479.085052 699.441162,479.492828 701.153992,480.585022 
	C701.468140,478.175415 701.933716,476.449982 701.869446,474.744446 
	C701.688354,469.934082 701.104370,465.135620 701.008301,460.325897 
	C700.568665,438.314880 695.518738,417.107941 688.062866,396.678558 
	C679.259888,372.557892 668.807129,349.041504 659.187683,325.215454 
	C655.722534,316.632690 651.731445,308.559784 642.878540,304.257263 
	C632.583069,299.253601 622.342712,294.121735 611.911621,289.415039 
	C588.133484,278.685944 564.329407,268.006866 540.385010,257.656525 
	C527.118164,251.921738 513.619141,250.905762 499.971405,257.235382 
	C489.624603,262.034088 478.916351,266.047516 468.495605,270.694366 
	C454.916656,276.749542 441.462982,283.085541 427.241913,289.266144 
	C419.654724,292.867676 412.218811,296.844910 404.442230,299.976105 
	C394.606873,303.936310 387.280243,310.252502 382.980713,319.947906 
	C381.109955,324.166504 379.547882,328.521851 377.682434,332.742950 
	C372.758057,343.885803 367.399933,354.850189 362.843292,366.139404 
	C355.120758,385.272369 348.000488,404.557129 343.362030,424.823364 
	C339.244415,442.813995 338.229614,460.953735 337.013916,479.167908 
	C336.944641,480.205658 337.274353,481.270050 337.523956,483.093231 
	C341.198303,479.086761 344.001801,475.335999 347.480469,472.379700 
	C354.965393,466.018829 357.874603,458.878204 358.375397,448.454315 
	C359.241241,430.431641 362.840729,412.433746 366.518463,394.679230 
	C371.314575,371.525452 381.000519,350.263702 394.990051,331.110962 
	C397.639923,327.483093 400.989471,324.366272 404.002563,321.002136 
M599.173462,647.005615 
	C596.959961,646.461853 594.774109,645.723083 592.528625,645.404663 
	C572.430847,642.554565 552.396118,638.650879 532.194336,637.332581 
	C515.621887,636.251160 498.763611,637.456604 482.186584,639.156006 
	C467.108368,640.701782 452.231964,644.243896 437.291687,647.039856 
	C436.353271,647.215515 434.944702,648.532654 434.919495,649.354431 
	C434.722473,655.781128 434.810455,662.216492 434.810455,668.652588 
	C456.308868,666.653381 476.902435,664.738342 498.353546,662.828918 
	C511.133331,662.866699 523.913147,662.904480 537.650269,662.995972 
	C544.546448,663.353638 551.451721,663.590332 558.336182,664.104858 
	C564.536255,664.568298 570.711365,665.357666 576.901306,665.963989 
	C583.572205,666.617310 590.247498,667.225037 597.715149,668.030396 
	C599.578308,668.418945 601.441528,668.807495 604.194702,669.381653 
	C604.194702,661.546753 604.194702,654.418640 604.194702,646.947449 
	C602.488464,647.037903 601.223389,647.104980 599.173462,647.005615 
M585.005737,517.984497 
	C585.036316,506.871307 585.093994,495.758057 585.051392,484.645142 
	C585.047607,483.645569 584.396362,482.648468 583.624756,481.140778 
	C583.130066,480.694092 582.581360,480.294067 582.149414,479.793274 
	C579.150391,476.316315 575.732117,476.591675 571.751282,478.059814 
	C567.428955,479.653900 566.744995,482.563904 567.016357,486.636597 
	C567.339905,491.491943 567.092529,496.385345 567.092529,501.262238 
	C559.820190,496.647888 553.736267,491.903809 548.091064,486.685150 
	C540.318787,479.500183 532.863708,471.971130 525.301880,464.559784 
	C521.896057,461.221710 517.708008,461.039215 514.253357,464.168823 
	C506.441071,471.246277 498.518707,478.206696 490.843597,485.429871 
	C483.016144,492.796448 475.430725,500.420227 467.739990,507.932098 
	C466.430481,509.211151 465.153687,510.525299 463.811981,511.769562 
	C454.126434,520.751282 444.184326,529.480286 434.946777,538.900452 
	C433.175659,540.706604 432.964386,545.793579 434.189240,548.322998 
	C435.578522,551.192017 439.587982,551.970093 442.979401,549.952698 
	C444.970032,548.768616 447.012329,547.563721 448.713470,546.018250 
	C460.011505,535.753967 471.273224,525.448425 482.449310,515.051575 
	C493.260040,504.994568 503.940247,494.797394 514.710083,484.696198 
	C516.969116,482.577393 518.933838,481.680267 521.837219,484.544098 
	C527.148987,489.783630 533.108765,494.359070 538.670166,499.354095 
	C556.193420,515.092712 573.608704,530.952148 591.207153,546.605957 
	C593.345154,548.507690 596.370178,550.552795 598.939209,550.496033 
	C601.325012,550.443420 604.736816,548.142761 605.691467,545.956299 
	C606.609741,543.853271 605.866699,539.794922 604.267090,538.050659 
	C599.285583,532.618835 593.521423,527.909302 588.132996,522.842834 
	C586.904785,521.687927 585.966858,520.224304 585.005737,517.984497 
M771.983154,328.244232 
	C771.938843,325.345642 772.063721,322.724915 775.386414,321.252930 
	C781.152649,318.698486 786.764587,315.796143 792.446716,313.051086 
	C799.417908,309.683289 806.394714,306.327179 814.209595,302.560913 
	C812.392090,301.120148 811.507141,300.195618 810.437622,299.605621 
	C800.474609,294.109497 790.353882,288.883789 780.565735,283.094635 
	C777.347351,281.191071 774.391357,278.242401 772.362366,275.096344 
	C770.278198,271.864746 769.861023,267.603729 768.040771,264.148010 
	C760.752930,250.311920 746.545898,247.114075 729.926453,251.900818 
	C733.585205,254.313202 736.676575,256.857300 740.178772,258.552948 
	C746.990662,261.851013 751.467651,267.044037 754.237061,274.717590 
	C754.165527,276.710571 754.033508,278.703491 754.031494,280.696533 
	C753.997986,313.798767 753.980774,346.901031 753.236023,379.923157 
	C746.033875,383.358337 744.078125,389.495941 744.017151,396.929230 
	C743.970459,402.625031 744.126160,408.543732 742.689941,413.965454 
	C738.334778,430.405792 733.162292,446.627808 728.490051,462.986786 
	C726.477417,470.033813 728.965942,477.212189 734.170166,480.798859 
	C740.033875,484.840057 745.412659,484.635742 752.024719,480.120667 
	C758.843262,487.031342 768.265442,486.819916 774.303345,480.601807 
	C782.601685,484.327271 789.051697,484.468628 793.249329,480.153442 
	C798.376526,474.882751 799.537598,468.387115 797.468933,461.285889 
	C793.675110,448.263092 789.866882,435.243103 786.249390,422.170837 
	C784.289673,415.089142 781.334961,408.298340 782.792786,400.432861 
	C784.180969,392.943542 782.377747,385.956665 775.571045,381.099274 
	C774.120483,380.064209 773.145569,378.362701 772.025879,376.039246 
	C771.985596,360.383270 771.945312,344.727325 771.983154,328.244232 
M747.938232,272.144165 
	C746.471069,269.447418 745.653809,265.855591 743.411011,264.227203 
	C737.451843,259.900665 730.932922,256.325836 724.536011,252.625977 
	C713.536560,246.264114 702.478516,240.002869 691.412598,233.756912 
	C677.234497,225.754318 663.055786,217.751556 648.816162,209.859421 
	C639.997925,204.972061 631.021667,200.370178 622.194946,195.497772 
	C607.460022,187.363998 592.778870,179.132614 578.092834,170.910507 
	C568.450378,165.512039 558.843384,160.050232 549.212830,154.630478 
	C540.045166,149.471252 530.958557,144.153198 521.613770,139.336716 
	C519.848450,138.426819 516.659424,138.831604 514.773010,139.838928 
	C502.531097,146.376114 490.467407,153.247101 478.346100,160.010147 
	C468.535797,165.483765 458.749847,171.001556 448.911011,176.423447 
	C436.490509,183.268051 424.041718,190.061691 411.576538,196.824677 
	C405.180176,200.295044 398.648285,203.520401 392.305908,207.084686 
	C377.335632,215.497620 362.494904,224.141678 347.503510,232.516418 
	C330.826019,241.833084 313.992706,250.870758 297.314301,260.185791 
	C281.632507,268.944153 266.116791,278.000153 250.425568,286.741364 
	C241.478531,291.725525 232.326645,296.342041 222.376663,301.594055 
	C265.588348,322.026764 307.949219,342.057129 350.378143,362.119690 
	C351.390594,360.201263 352.213623,359.108368 352.577942,357.879395 
	C356.339203,345.193298 360.216309,332.536835 363.682831,319.769379 
	C367.448822,305.898956 375.238678,295.246857 387.916718,288.459778 
	C399.187225,282.426208 410.523376,276.488525 422.048218,270.962402 
	C445.244690,259.839722 468.569183,248.982834 491.882629,238.105850 
	C501.398285,233.666260 511.632416,232.280243 521.981506,232.129471 
	C534.909363,231.941116 546.408997,237.202560 557.783936,242.533661 
	C572.150452,249.266830 586.527893,255.991318 600.709534,263.100677 
	C618.050659,271.793854 635.317444,280.653473 652.375671,289.885895 
	C662.498840,295.364929 669.800049,304.001129 673.595154,314.786530 
	C678.539368,328.837677 682.673950,343.187897 686.710205,357.535095 
	C687.812073,361.451782 689.151367,362.037842 692.499023,360.436859 
	C710.939636,351.617706 729.409607,342.859833 748.729797,333.784119 
	C748.855347,333.307098 749.089844,332.830292 749.090698,332.353058 
	C749.124268,313.527313 749.154053,294.701508 749.103638,275.875916 
	C749.100952,274.875458 748.398376,273.876892 747.938232,272.144165 
M452.500000,771.986389 
	C503.801453,772.019165 555.102905,772.047668 606.404358,772.087463 
	C620.428284,772.098389 629.782532,756.839294 624.127136,744.013184 
	C619.652344,733.864746 611.501709,731.064636 601.649719,731.048401 
	C546.850403,730.958130 492.050781,731.025391 437.251556,730.903320 
	C424.460999,730.874817 417.883759,735.183777 413.728607,747.219238 
	C410.366852,756.956665 417.030334,769.523499 427.183533,770.982971 
	C435.172028,772.131470 443.386169,771.710632 452.500000,771.986389 
M516.500000,843.956787 
	C536.307495,844.003906 556.115540,844.148682 575.922302,844.051331 
	C584.096924,844.011108 590.968384,840.632141 594.764709,833.273804 
	C598.689758,825.665771 598.092957,817.874756 592.983337,810.707947 
	C587.648682,803.225586 579.713623,802.111816 571.442993,802.092346 
	C536.987976,802.011292 502.532745,801.983704 468.077667,802.018555 
	C464.952148,802.021729 461.767212,802.327820 458.712555,802.976868 
	C446.408966,805.591125 441.367920,814.364014 442.130890,824.212341 
	C443.252258,838.687561 451.659088,843.742371 463.070465,843.959045 
	C480.540649,844.290833 498.022888,843.989014 516.500000,843.956787 
z"/>
<path fill="#1B2C3A" opacity="1.000000" stroke="none" 
	d="
M747.869507,334.080963 
	C729.409607,342.859833 710.939636,351.617706 692.499023,360.436859 
	C689.151367,362.037842 687.812073,361.451782 686.710205,357.535095 
	C682.673950,343.187897 678.539368,328.837677 673.595154,314.786530 
	C669.800049,304.001129 662.498840,295.364929 652.375671,289.885895 
	C635.317444,280.653473 618.050659,271.793854 600.709534,263.100677 
	C586.527893,255.991318 572.150452,249.266830 557.783936,242.533661 
	C546.408997,237.202560 534.909363,231.941116 521.981506,232.129471 
	C511.632416,232.280243 501.398285,233.666260 491.882629,238.105850 
	C468.569183,248.982834 445.244690,259.839722 422.048218,270.962402 
	C410.523376,276.488525 399.187225,282.426208 387.916718,288.459778 
	C375.238678,295.246857 367.448822,305.898956 363.682831,319.769379 
	C360.216309,332.536835 356.339203,345.193298 352.577942,357.879395 
	C352.213623,359.108368 351.390594,360.201263 350.378143,362.119690 
	C307.949219,342.057129 265.588348,322.026764 222.376663,301.594055 
	C232.326645,296.342041 241.478531,291.725525 250.425568,286.741364 
	C266.116791,278.000153 281.632507,268.944153 297.314301,260.185791 
	C313.992706,250.870758 330.826019,241.833084 347.503510,232.516418 
	C362.494904,224.141678 377.335632,215.497620 392.305908,207.084686 
	C398.648285,203.520401 405.180176,200.295044 411.576538,196.824677 
	C424.041718,190.061691 436.490509,183.268051 448.911011,176.423447 
	C458.749847,171.001556 468.535797,165.483765 478.346100,160.010147 
	C490.467407,153.247101 502.531097,146.376114 514.773010,139.838928 
	C516.659424,138.831604 519.848450,138.426819 521.613770,139.336716 
	C530.958557,144.153198 540.045166,149.471252 549.212830,154.630478 
	C558.843384,160.050232 568.450378,165.512039 578.092834,170.910507 
	C592.778870,179.132614 607.460022,187.363998 622.194946,195.497772 
	C631.021667,200.370178 639.997925,204.972061 648.816162,209.859421 
	C663.055786,217.751556 677.234497,225.754318 691.412598,233.756912 
	C702.478516,240.002869 713.536560,246.264114 724.536011,252.625977 
	C730.932922,256.325836 737.451843,259.900665 743.411011,264.227203 
	C745.653809,265.855591 746.471069,269.447418 747.909729,272.896667 
	C747.834656,274.169769 747.788025,274.690399 747.571655,275.564758 
	C747.327759,294.414246 747.249878,312.909973 747.200989,331.405762 
	C747.199768,331.869934 747.518066,332.334961 747.700317,333.124573 
	C747.765320,333.660034 747.817383,333.870483 747.869507,334.080963 
z"/>
<path fill="#1B2C3A" opacity="1.000000" stroke="none" 
	d="
M384.491455,372.109467 
	C384.369324,371.645081 384.247192,371.180725 384.251343,370.195862 
	C384.608795,369.440369 384.809601,369.181763 384.980011,368.899567 
	C385.045441,368.741089 385.110870,368.582642 385.590240,368.106049 
	C387.387909,367.308441 388.771576,366.828979 389.330414,366.635345 
	C390.413391,362.796173 391.027863,359.572357 392.228973,356.584351 
	C394.508514,350.913422 397.211853,345.414215 399.568787,339.772522 
	C401.098206,336.111603 401.279297,331.057678 403.921082,328.875336 
	C408.486237,325.104187 407.478546,320.958069 407.265503,316.546051 
	C407.223022,315.666565 406.665100,314.811981 406.344849,313.945892 
	C405.404480,314.366699 404.416290,314.706757 403.535736,315.228485 
	C402.406219,315.897736 401.363220,316.713135 399.543732,317.980469 
	C399.935272,313.531433 400.207245,310.245819 400.518311,306.963867 
	C400.808228,303.905151 402.657166,303.401276 405.410248,303.619293 
	C410.857391,304.050598 416.329926,304.161163 421.178772,304.377045 
	C421.570282,302.670074 421.429077,300.551636 422.288879,300.003571 
	C426.311218,297.439636 428.126465,293.960083 427.955414,289.300720 
	C441.462982,283.085541 454.916656,276.749542 468.495605,270.694366 
	C478.916351,266.047516 489.624603,262.034088 499.971405,257.235382 
	C513.619141,250.905762 527.118164,251.921738 540.385010,257.656525 
	C564.329407,268.006866 588.133484,278.685944 611.911621,289.415039 
	C622.342712,294.121735 632.583069,299.253601 642.878540,304.257263 
	C651.731445,308.559784 655.722534,316.632690 659.187683,325.215454 
	C668.807129,349.041504 679.259888,372.557892 688.062866,396.678558 
	C695.518738,417.107941 700.568665,438.314880 701.008301,460.325897 
	C701.104370,465.135620 701.688354,469.934082 701.869446,474.744446 
	C701.933716,476.449982 701.468140,478.175415 701.153992,480.585022 
	C699.441162,479.492828 698.306396,479.085052 697.626099,478.288910 
	C682.929077,461.089386 664.949097,448.105103 644.569702,438.745239 
	C628.361877,431.301239 611.926514,423.849426 594.866272,418.905853 
	C577.660889,413.920197 559.668335,411.129364 541.827515,408.980896 
	C515.228882,405.777832 488.742126,408.474854 462.605408,414.098267 
	C437.906738,419.412231 414.390320,428.082703 392.131531,440.055084 
	C386.301361,443.191010 380.679016,446.713196 374.305786,449.872864 
	C373.250641,447.858917 372.370392,445.984009 372.540466,444.209808 
	C373.071045,438.675629 373.905762,433.164185 374.809875,427.674774 
	C375.305817,424.663666 375.256317,420.091888 377.066589,419.062897 
	C381.322266,416.643829 380.926392,413.382202 381.032776,409.764404 
	C381.080536,408.138763 380.900238,405.950348 381.828888,405.004608 
	C385.515381,401.250122 383.228729,399.884613 379.269989,398.980103 
	C380.895874,395.969421 382.961517,393.532959 383.535492,390.784912 
	C384.641113,385.491760 384.955933,380.027313 385.457062,374.620758 
	C385.531250,373.820374 384.832550,372.948334 384.491455,372.109467 
z"/>
<path fill="#1D2D3B" opacity="1.000000" stroke="none" 
	d="
M635.001160,683.930298 
	C635.516968,696.717957 624.238708,709.206665 609.076660,711.620789 
	C607.076965,711.237793 605.763428,711.001221 604.449829,711.000916 
	C546.991943,710.987061 489.534058,710.994202 432.076172,710.998718 
	C425.006470,712.899719 419.413605,709.202637 414.337036,705.458130 
	C406.882935,699.960022 403.176086,692.046021 403.046692,682.710999 
	C402.936035,674.727783 402.727814,666.717834 403.230225,658.761841 
	C403.770782,650.201355 399.480652,643.723511 394.790405,637.569641 
	C386.558105,626.768433 377.781342,616.382935 369.263916,605.798096 
	C356.975891,590.527405 348.710632,573.226746 342.919891,554.567017 
	C338.368683,539.901489 336.526306,524.974670 337.154480,509.704559 
	C337.239319,507.642700 337.474945,505.064728 338.707245,503.663910 
	C343.733154,497.950623 349.173553,492.601990 355.153198,487.257141 
	C361.327393,490.174957 358.449524,494.696381 358.277069,498.713287 
	C358.104095,502.742554 357.965179,506.800476 358.255707,510.813629 
	C358.477081,513.871765 359.848938,516.870300 359.910614,519.911499 
	C360.066101,527.578979 362.464050,534.236206 367.577087,539.930725 
	C367.639984,540.114136 367.702911,540.297607 367.745026,541.076782 
	C368.069244,545.707703 368.997681,549.795898 368.637939,553.767334 
	C367.887787,562.049011 368.388702,563.113464 376.059509,563.969543 
	C376.059509,563.969543 376.024689,564.009827 376.031372,564.339417 
	C376.669434,565.784363 377.300781,566.899719 377.932129,568.015076 
	C377.932129,568.015076 377.977600,567.988953 377.996582,568.401733 
	C378.639130,571.817139 379.262726,574.819824 379.925720,578.012268 
	C380.997314,577.124695 381.734680,576.513916 382.472015,575.903198 
	C391.914337,588.018372 401.058167,600.383057 410.901489,612.163147 
	C417.730530,620.335876 423.749451,628.697937 426.028595,640.164673 
	C426.300140,651.546814 426.512115,662.072571 426.724060,672.598328 
	C427.711792,676.232727 429.605743,679.032043 434.225372,680.264282 
	C436.411682,680.704468 437.890747,680.981262 439.369568,680.980042 
	C458.994751,680.963806 478.620148,680.955444 498.244873,680.839111 
	C505.711334,680.794861 513.176147,680.480164 520.641724,680.288696 
	C523.237488,680.239075 525.833313,680.189392 529.246826,680.320496 
	C532.614502,680.605103 535.164551,680.708923 538.199890,680.849854 
	C558.843506,680.926819 579.001831,680.989014 599.160034,680.964294 
	C600.766052,680.962280 602.371338,680.359436 603.976929,680.035889 
	C610.289673,678.674194 611.969116,676.713806 611.961426,670.727539 
	C611.950378,662.064209 611.633667,653.387146 612.016418,644.741150 
	C612.436951,635.240417 616.180054,626.846191 622.027344,619.362732 
	C632.643433,605.776062 643.605225,592.436951 653.700500,578.472351 
	C663.614441,564.758606 669.235413,548.918884 672.788147,532.501953 
	C674.626953,524.005493 675.750671,515.209351 675.876465,506.529449 
	C675.992798,498.507812 674.330750,490.462250 673.487244,482.423492 
	C673.291260,480.555084 673.238464,478.671631 673.034851,475.453308 
	C676.547729,478.176941 679.119690,479.825897 681.274536,481.906799 
	C687.608032,488.022980 693.858704,494.231628 699.934753,500.601654 
	C701.068787,501.790558 701.682800,503.868225 701.791138,505.582825 
	C703.099609,526.289612 699.501221,546.166748 691.981262,565.493530 
	C683.126831,588.249939 669.228394,607.580627 653.174683,625.707947 
	C646.128723,633.664001 637.951477,641.198853 635.682373,653.261414 
	C635.307373,663.986877 635.154297,673.958557 635.001160,683.930298 
z"/>
<path fill="#1B2C3A" opacity="1.000000" stroke="none" 
	d="
M455.561615,552.624756 
	C461.281616,546.940247 466.868469,541.112915 472.763306,535.615967 
	C477.570160,531.133545 482.881897,527.194702 487.723267,522.746582 
	C494.064972,516.919922 500.115601,510.777771 506.388489,504.874481 
	C509.506287,501.940399 512.796814,499.183838 516.089294,496.443207 
	C519.369080,493.713226 521.867981,496.439270 523.877197,498.235260 
	C534.565308,507.789124 544.978577,517.649597 555.609680,527.268311 
	C564.019043,534.876709 572.627930,542.264099 581.085144,549.820190 
	C582.164978,550.784973 582.864197,552.175720 583.630249,554.055725 
	C583.346985,555.719421 583.022827,556.696350 583.021729,557.673645 
	C582.998474,578.672607 582.992432,599.671631 583.058533,620.670410 
	C583.063110,622.111145 583.659180,623.550110 584.030029,625.278442 
	C584.313538,626.297241 584.547058,627.027588 584.780640,627.757874 
	C582.834839,628.201538 580.812378,629.234436 578.955811,628.992676 
	C567.532593,627.505432 556.185730,625.311890 544.730469,624.243958 
	C539.707336,623.775696 538.275024,622.102051 539.296997,616.772949 
	C539.406921,604.403931 539.318909,592.843628 539.230835,581.283264 
	C538.323547,579.632202 537.416260,577.981201 535.890381,575.868774 
	C526.259827,575.226624 517.248230,574.985413 508.235413,574.918152 
	C506.518555,574.905334 504.796509,575.579773 503.076843,575.937012 
	C502.036133,578.965332 500.196869,581.967834 500.097778,585.026672 
	C499.736664,596.176758 499.829895,607.347900 500.026062,618.506226 
	C500.095520,622.455444 498.981293,623.817749 494.768585,624.214294 
	C484.207062,625.208313 473.720917,627.000732 463.202881,628.460815 
	C460.440826,628.844238 457.672668,629.183716 454.047150,629.655212 
	C454.047150,625.295349 454.047150,621.557251 454.278534,617.342346 
	C454.509918,616.865540 454.846252,616.810547 454.884003,617.223877 
	C455.014282,619.415588 455.106812,621.193970 455.199341,622.972290 
	C456.029968,612.763306 456.089081,602.566223 456.015259,592.370178 
	C455.919342,579.121338 455.717743,565.873169 455.561615,552.624756 
z"/>
<path fill="#1D2D3B" opacity="1.000000" stroke="none" 
	d="
M754.254456,273.907990 
	C751.467651,267.044037 746.990662,261.851013 740.178772,258.552948 
	C736.676575,256.857300 733.585205,254.313202 729.926453,251.900818 
	C746.545898,247.114075 760.752930,250.311920 768.040771,264.148010 
	C769.861023,267.603729 770.278198,271.864746 772.362366,275.096344 
	C774.391357,278.242401 777.347351,281.191071 780.565735,283.094635 
	C790.353882,288.883789 800.474609,294.109497 810.437622,299.605621 
	C811.507141,300.195618 812.392090,301.120148 814.209595,302.560913 
	C806.394714,306.327179 799.417908,309.683289 792.446716,313.051086 
	C786.764587,315.796143 781.152649,318.698486 775.386414,321.252930 
	C772.063721,322.724915 771.938843,325.345642 771.755371,329.014526 
	C771.415161,344.901703 771.293640,360.018555 771.222961,375.135590 
	C771.220154,375.745300 771.697815,376.357239 771.951660,376.968170 
	C773.145569,378.362701 774.120483,380.064209 775.571045,381.099274 
	C782.377747,385.956665 784.180969,392.943542 782.792786,400.432861 
	C781.334961,408.298340 784.289673,415.089142 786.249390,422.170837 
	C789.866882,435.243103 793.675110,448.263092 797.468933,461.285889 
	C799.537598,468.387115 798.376526,474.882751 793.249329,480.153442 
	C789.051697,484.468628 782.601685,484.327271 774.303345,480.601807 
	C768.265442,486.819916 758.843262,487.031342 752.024719,480.120667 
	C745.412659,484.635742 740.033875,484.840057 734.170166,480.798859 
	C728.965942,477.212189 726.477417,470.033813 728.490051,462.986786 
	C733.162292,446.627808 738.334778,430.405792 742.689941,413.965454 
	C744.126160,408.543732 743.970459,402.625031 744.017151,396.929230 
	C744.078125,389.495941 746.033875,383.358337 753.829102,379.848877 
	C754.637207,379.508728 754.852234,379.242859 755.113770,378.857819 
	C755.233032,378.488953 755.195496,378.248779 754.970886,377.553833 
	C754.977234,358.389893 755.060364,339.690216 755.464722,320.791077 
	C756.173584,319.546875 756.890137,318.504730 756.898254,317.457062 
	C756.982910,306.559631 757.013000,295.660583 756.875305,284.764282 
	C756.859436,283.505798 755.734924,282.261292 755.039368,280.589966 
	C754.946106,278.456207 754.937927,276.742798 755.035400,274.800171 
	C754.729858,274.162689 754.318604,273.754425 754.128784,273.403442 
	C754.350220,273.460724 754.254456,273.907990 754.254456,273.907990 
z"/>
<path fill="#1C2D3B" opacity="1.000000" stroke="none" 
	d="
M452.000031,771.986633 
	C443.386169,771.710632 435.172028,772.131470 427.183533,770.982971 
	C417.030334,769.523499 410.366852,756.956665 413.728607,747.219238 
	C417.883759,735.183777 424.460999,730.874817 437.251556,730.903320 
	C492.050781,731.025391 546.850403,730.958130 601.649719,731.048401 
	C611.501709,731.064636 619.652344,733.864746 624.127136,744.013184 
	C629.782532,756.839294 620.428284,772.098389 606.404358,772.087463 
	C555.102905,772.047668 503.801453,772.019165 452.000031,771.986633 
z"/>
<path fill="#1C2D3B" opacity="1.000000" stroke="none" 
	d="
M516.000000,843.956482 
	C498.022888,843.989014 480.540649,844.290833 463.070465,843.959045 
	C451.659088,843.742371 443.252258,838.687561 442.130890,824.212341 
	C441.367920,814.364014 446.408966,805.591125 458.712555,802.976868 
	C461.767212,802.327820 464.952148,802.021729 468.077667,802.018555 
	C502.532745,801.983704 536.987976,802.011292 571.442993,802.092346 
	C579.713623,802.111816 587.648682,803.225586 592.983337,810.707947 
	C598.092957,817.874756 598.689758,825.665771 594.764709,833.273804 
	C590.968384,840.632141 584.096924,844.011108 575.922302,844.051331 
	C556.115540,844.148682 536.307495,844.003906 516.000000,843.956482 
z"/>
<path fill="#20313E" opacity="1.000000" stroke="none" 
	d="
M584.895325,518.902771 
	C585.966858,520.224304 586.904785,521.687927 588.132996,522.842834 
	C593.521423,527.909302 599.285583,532.618835 604.267090,538.050659 
	C605.866699,539.794922 606.609741,543.853271 605.691467,545.956299 
	C604.736816,548.142761 601.325012,550.443420 598.939209,550.496033 
	C596.370178,550.552795 593.345154,548.507690 591.207153,546.605957 
	C573.608704,530.952148 556.193420,515.092712 538.670166,499.354095 
	C533.108765,494.359070 527.148987,489.783630 521.837219,484.544098 
	C518.933838,481.680267 516.969116,482.577393 514.710083,484.696198 
	C503.940247,494.797394 493.260040,504.994568 482.449310,515.051575 
	C471.273224,525.448425 460.011505,535.753967 448.713470,546.018250 
	C447.012329,547.563721 444.970032,548.768616 442.979401,549.952698 
	C439.587982,551.970093 435.578522,551.192017 434.189240,548.322998 
	C432.964386,545.793579 433.175659,540.706604 434.946777,538.900452 
	C444.184326,529.480286 454.126434,520.751282 463.811981,511.769562 
	C465.153687,510.525299 466.430481,509.211151 467.739990,507.932098 
	C475.430725,500.420227 483.016144,492.796448 490.843597,485.429871 
	C498.518707,478.206696 506.441071,471.246277 514.253357,464.168823 
	C517.708008,461.039215 521.896057,461.221710 525.301880,464.559784 
	C532.863708,471.971130 540.318787,479.500183 548.091064,486.685150 
	C553.736267,491.903809 559.820190,496.647888 567.092529,501.262238 
	C567.092529,496.385345 567.339905,491.491943 567.016357,486.636597 
	C566.744995,482.563904 567.428955,479.653900 571.751282,478.059814 
	C575.732117,476.591675 579.150391,476.316315 582.149414,479.793274 
	C582.581360,480.294067 583.130066,480.694092 583.743286,481.880341 
	C583.895996,492.783386 583.883362,502.947418 584.005554,513.109863 
	C584.028809,515.044067 584.585022,516.971985 584.895325,518.902771 
z"/>
<path fill="#55A40F" opacity="1.000000" stroke="none" 
	d="
M497.496033,662.823242 
	C476.902435,664.738342 456.308868,666.653381 434.810455,668.652588 
	C434.810455,662.216492 434.722473,655.781128 434.919495,649.354431 
	C434.944702,648.532654 436.353271,647.215515 437.291687,647.039856 
	C452.231964,644.243896 467.108368,640.701782 482.186584,639.156006 
	C498.763611,637.456604 515.621887,636.251160 532.194336,637.332581 
	C552.396118,638.650879 572.430847,642.554565 592.528625,645.404663 
	C594.774109,645.723083 596.959961,646.461853 599.839600,647.325867 
	C601.293091,651.493896 602.115295,655.334900 602.858948,659.191101 
	C603.796143,664.050903 601.959778,667.063110 596.920898,667.852722 
	C590.247498,667.225037 583.572205,666.617310 576.901306,665.963989 
	C570.711365,665.357666 564.536255,664.568298 558.336182,664.104858 
	C551.451721,663.590332 544.546448,663.353638 536.917847,662.663208 
	C523.288940,662.494690 510.392487,662.658997 497.496033,662.823242 
z"/>
<path fill="#1D303C" opacity="1.000000" stroke="none" 
	d="
M367.682800,539.545654 
	C362.464050,534.236206 360.066101,527.578979 359.910614,519.911499 
	C359.848938,516.870300 358.477081,513.871765 358.255707,510.813629 
	C357.965179,506.800476 358.104095,502.742554 358.277069,498.713287 
	C358.449524,494.696381 361.327393,490.174957 355.523071,487.255920 
	C360.228790,482.122711 364.673706,476.296967 370.392670,472.289429 
	C388.238159,459.784180 406.901031,448.581360 428.078674,442.454865 
	C442.979980,438.144073 457.795410,433.293060 472.960175,430.215820 
	C484.350433,427.904449 496.235077,428.029388 508.832214,427.070160 
	C518.885437,427.047333 528.006104,427.024078 537.126770,427.000793 
	C585.448669,429.264374 629.500977,444.045135 668.841370,472.768707 
	C666.236084,471.889709 663.588135,471.117950 661.037476,470.101898 
	C658.435913,469.065552 656.018921,467.511230 653.367859,466.662537 
	C634.851929,460.734955 616.516724,454.045105 597.685608,449.360138 
	C581.699646,445.383057 565.208679,442.849060 548.788757,441.375763 
	C533.829407,440.033569 518.646362,440.463989 503.594971,441.014893 
	C470.031311,442.243378 437.831360,450.039612 406.970825,463.135712 
	C394.785889,468.306580 383.069946,474.573273 370.982452,479.988281 
	C366.633118,481.936676 365.508698,485.177002 365.014557,489.304810 
	C363.004791,506.093292 364.134338,522.693909 367.682800,539.545654 
z"/>
<path fill="#1E313D" opacity="1.000000" stroke="none" 
	d="
M427.598663,289.283447 
	C428.126465,293.960083 426.311218,297.439636 422.288879,300.003571 
	C421.429077,300.551636 421.570282,302.670074 421.178772,304.377045 
	C416.329926,304.161163 410.857391,304.050598 405.410248,303.619293 
	C402.657166,303.401276 400.808228,303.905151 400.518311,306.963867 
	C400.207245,310.245819 399.935272,313.531433 399.543732,317.980469 
	C401.363220,316.713135 402.406219,315.897736 403.535736,315.228485 
	C404.416290,314.706757 405.404480,314.366699 406.344849,313.945892 
	C406.665100,314.811981 407.223022,315.666565 407.265503,316.546051 
	C407.478546,320.958069 408.486237,325.104187 403.921082,328.875336 
	C401.279297,331.057678 401.098206,336.111603 399.568787,339.772522 
	C397.211853,345.414215 394.508514,350.913422 392.228973,356.584351 
	C391.027863,359.572357 390.413391,362.796173 389.330414,366.635345 
	C388.771576,366.828979 387.387909,367.308441 385.682861,367.866150 
	C387.802856,360.815491 389.944733,353.565552 392.762573,346.588684 
	C396.161346,338.173615 400.133789,329.990204 404.104767,321.207306 
	C404.383484,320.287659 404.415314,319.867249 404.447144,319.446777 
	C404.328522,319.497742 404.113831,319.537750 404.106567,319.601440 
	C404.053131,320.069519 404.041199,320.542328 404.016174,321.013641 
	C400.989471,324.366272 397.639923,327.483093 394.990051,331.110962 
	C381.000519,350.263702 371.314575,371.525452 366.518463,394.679230 
	C362.840729,412.433746 359.241241,430.431641 358.375397,448.454315 
	C357.874603,458.878204 354.965393,466.018829 347.480469,472.379700 
	C344.001801,475.335999 341.198303,479.086761 337.523956,483.093231 
	C337.274353,481.270050 336.944641,480.205658 337.013916,479.167908 
	C338.229614,460.953735 339.244415,442.813995 343.362030,424.823364 
	C348.000488,404.557129 355.120758,385.272369 362.843292,366.139404 
	C367.399933,354.850189 372.758057,343.885803 377.682434,332.742950 
	C379.547882,328.521851 381.109955,324.166504 382.980713,319.947906 
	C387.280243,310.252502 394.606873,303.936310 404.442230,299.976105 
	C412.218811,296.844910 419.654724,292.867676 427.598663,289.283447 
z"/>
<path fill="#1D2D3B" opacity="1.000000" stroke="none" 
	d="
M569.996643,865.252502 
	C565.000122,874.745605 557.187988,881.065186 547.465576,885.223755 
	C523.440918,895.499756 500.677216,892.494019 479.729034,877.576782 
	C474.800751,874.067383 471.916687,867.687317 468.574707,862.280273 
	C471.409912,861.987244 473.762634,862.041809 476.465454,862.290771 
	C477.623383,862.651733 478.430908,862.962341 479.239014,862.963806 
	C497.172516,862.996338 515.106079,863.012573 533.039429,862.962036 
	C534.315125,862.958496 535.589294,862.417175 537.240479,862.099121 
	C538.119446,862.086365 538.622009,862.100464 539.415649,862.291809 
	C541.457642,862.323608 543.208618,862.178101 545.429565,861.995361 
	C552.648682,861.941650 559.402222,861.787842 566.143677,862.006653 
	C567.796082,862.060425 569.408936,863.332214 571.039978,864.044067 
	C571.039978,864.044067 571.000000,864.003296 570.762146,864.115845 
	C570.348450,864.569702 570.172546,864.911133 569.996643,865.252502 
z"/>
<path fill="#5AA413" opacity="1.000000" stroke="none" 
	d="
M668.952515,803.866455 
	C662.303467,802.917419 655.663391,801.899719 649.003174,801.036804 
	C640.855347,799.981140 632.691284,799.050171 624.533203,798.074524 
	C610.353210,796.378784 596.172302,794.690247 581.768616,791.921021 
	C586.354675,790.694580 590.874695,788.878418 595.539612,788.355347 
	C608.123657,786.944519 620.832214,784.761230 633.374329,785.355103 
	C647.710571,786.033813 662.147461,788.434692 676.128540,791.799438 
	C693.831665,796.059998 711.119568,802.045898 728.508301,807.818542 
	C723.233398,811.287842 717.616760,811.446289 712.209656,809.713806 
	C705.493713,807.562134 698.516052,807.741943 691.646484,804.156738 
	C685.661438,801.033203 676.635071,803.737305 668.952515,803.866455 
z"/>
<path fill="#53A70B" opacity="1.000000" stroke="none" 
	d="
M324.045227,803.956909 
	C331.251495,801.324890 338.342407,798.296875 345.691925,796.156799 
	C355.874146,793.191956 366.124023,790.027954 376.571716,788.499634 
	C395.898376,785.672607 415.328918,782.530334 434.950409,786.836548 
	C440.368286,788.025574 445.970978,788.372620 451.557678,789.741577 
	C448.500336,791.239929 445.423981,792.506470 442.239807,792.899231 
	C422.806152,795.296570 403.334778,797.388306 383.902496,799.795959 
	C369.507690,801.579407 355.477539,806.222900 340.702118,805.180542 
	C339.328522,805.083618 337.736359,806.318787 336.438873,807.215088 
	C330.819977,811.096863 325.088287,809.729980 322.967926,803.905151 
	C322.967926,803.905151 322.986603,803.967224 323.235596,803.963867 
	C323.671448,803.959351 323.858337,803.958130 324.045227,803.956909 
z"/>
<path fill="#60A725" opacity="1.000000" stroke="none" 
	d="
M322.584106,803.931885 
	C325.088287,809.729980 330.819977,811.096863 336.438873,807.215088 
	C337.736359,806.318787 339.328522,805.083618 340.702118,805.180542 
	C355.477539,806.222900 369.507690,801.579407 383.902496,799.795959 
	C403.334778,797.388306 422.806152,795.296570 442.239807,792.899231 
	C445.423981,792.506470 448.500336,791.239929 451.820740,790.038757 
	C454.298615,790.325012 456.582306,790.949646 458.865997,791.574341 
	C458.845764,791.863770 458.825531,792.153198 458.805328,792.442688 
	C430.677856,796.217285 402.554657,800.023743 374.421783,803.757507 
	C346.335846,807.485046 318.882355,815.127502 290.739624,818.495239 
	C290.508118,817.673584 290.276581,816.851929 290.045074,816.030273 
	C300.763458,812.006409 311.481873,807.982483 322.584106,803.931885 
M316.752686,811.003784 
	C319.092010,810.887817 321.431305,810.771912 323.770630,810.655945 
	C317.700562,807.333069 315.780975,807.369873 311.834290,810.480957 
	C313.453827,810.687988 314.687073,810.845581 316.752686,811.003784 
z"/>
<path fill="#1E313D" opacity="1.000000" stroke="none" 
	d="
M384.245667,372.399536 
	C384.832550,372.948334 385.531250,373.820374 385.457062,374.620758 
	C384.955933,380.027313 384.641113,385.491760 383.535492,390.784912 
	C382.961517,393.532959 380.895874,395.969421 379.269989,398.980103 
	C383.228729,399.884613 385.515381,401.250122 381.828888,405.004608 
	C380.900238,405.950348 381.080536,408.138763 381.032776,409.764404 
	C380.926392,413.382202 381.322266,416.643829 377.066589,419.062897 
	C375.256317,420.091888 375.305817,424.663666 374.809875,427.674774 
	C373.905762,433.164185 373.071045,438.675629 372.540466,444.209808 
	C372.370392,445.984009 373.250641,447.858917 373.964325,449.923431 
	C372.644196,451.471741 371.010071,452.784332 368.518372,454.785828 
	C369.809692,442.799042 370.265808,431.790863 372.321136,421.089813 
	C375.328094,405.434021 379.477020,389.997314 383.164032,374.473145 
	C383.312561,373.847717 383.715515,373.282745 384.245667,372.399536 
z"/>
<path fill="#60A725" opacity="1.000000" stroke="none" 
	d="
M669.363647,803.950073 
	C676.635071,803.737305 685.661438,801.033203 691.646484,804.156738 
	C698.516052,807.741943 705.493713,807.562134 712.209656,809.713806 
	C717.616760,811.446289 723.233398,811.287842 728.705566,808.126343 
	C729.576050,808.074097 730.171143,808.244995 730.988525,809.034058 
	C732.585266,812.566711 734.670227,812.356445 737.021851,810.973633 
	C744.472168,813.687744 751.922485,816.401855 759.372742,819.115967 
	C759.162048,819.746155 758.951294,820.376343 758.740540,821.006531 
	C746.635498,818.570068 734.553711,816.009521 722.418884,813.731323 
	C709.706360,811.344788 696.936035,809.266907 684.205078,806.976196 
	C679.374817,806.107117 674.583679,805.020996 669.363647,803.950073 
z"/>
<path fill="#48515A" opacity="1.000000" stroke="none" 
	d="
M432.317505,711.346313 
	C489.534058,710.994202 546.991943,710.987061 604.449829,711.000916 
	C605.763428,711.001221 607.076965,711.237793 608.687378,711.661621 
	C569.659485,711.975342 530.334778,711.991394 491.010132,712.007935 
	C472.845490,712.015625 454.680817,712.031494 436.516174,712.018005 
	C435.196991,712.017029 433.877960,711.806824 432.317505,711.346313 
z"/>
<path fill="#B4BDC5" opacity="1.000000" stroke="none" 
	d="
M754.929688,275.029388 
	C754.937927,276.742798 754.946106,278.456207 754.989319,281.055939 
	C755.064087,294.958344 755.103821,307.974457 755.143555,320.990540 
	C755.060364,339.690216 754.977234,358.389893 754.920898,377.794617 
	C754.947754,378.499664 755.067200,378.976959 755.067200,378.976990 
	C754.852234,379.242859 754.637207,379.508728 754.191040,379.888947 
	C753.980774,346.901031 753.997986,313.798767 754.031494,280.696533 
	C754.033508,278.703491 754.165527,276.710571 754.245728,274.312805 
	C754.254456,273.907990 754.350220,273.460724 754.075195,273.768494 
	C754.176697,274.393951 754.553162,274.711670 754.929688,275.029388 
z"/>
<path fill="#48515A" opacity="1.000000" stroke="none" 
	d="
M571.317932,863.765381 
	C569.408936,863.332214 567.796082,862.060425 566.143677,862.006653 
	C559.402222,861.787842 552.648682,861.941650 545.012207,861.977051 
	C542.458130,862.035461 540.791382,862.075012 539.124634,862.114563 
	C538.622009,862.100464 538.119446,862.086365 536.785034,862.081299 
	C516.007324,862.092346 496.061310,862.094360 476.115326,862.096375 
	C473.762634,862.041809 471.409912,861.987244 468.621643,861.910278 
	C469.749481,861.580933 471.312622,861.007996 472.876343,861.006348 
	C504.407745,860.973267 535.939331,860.973511 567.470032,861.136902 
	C568.814636,861.143860 572.454102,858.923279 571.317932,863.765381 
z"/>
<path fill="#48515A" opacity="1.000000" stroke="none" 
	d="
M520.203247,680.270142 
	C513.176147,680.480164 505.711334,680.794861 498.244873,680.839111 
	C478.620148,680.955444 458.994751,680.963806 439.369568,680.980042 
	C437.890747,680.981262 436.411682,680.704468 434.587280,680.374146 
	C462.749481,680.211487 491.257141,680.231567 520.203247,680.270142 
z"/>
<path fill="#1D303C" opacity="1.000000" stroke="none" 
	d="
M376.038910,563.586304 
	C368.388702,563.113464 367.887787,562.049011 368.637939,553.767334 
	C368.997681,549.795898 368.069244,545.707703 367.856812,541.345337 
	C370.665710,548.413208 373.342010,555.808105 376.038910,563.586304 
z"/>
<path fill="#111E27" opacity="1.000000" stroke="none" 
	d="
M583.980103,624.989868 
	C583.659180,623.550110 583.063110,622.111145 583.058533,620.670410 
	C582.992432,599.671631 582.998474,578.672607 583.021729,557.673645 
	C583.022827,556.696350 583.346985,555.719421 583.714844,554.383423 
	C584.248413,557.759521 584.587891,561.494507 584.675659,566.018982 
	C584.313782,568.620239 584.113770,570.431702 584.107483,572.243774 
	C584.046448,589.825684 584.017944,607.407837 583.980103,624.989868 
z"/>
<path fill="#111E27" opacity="1.000000" stroke="none" 
	d="
M455.450195,552.680847 
	C455.717743,565.873169 455.919342,579.121338 456.015259,592.370178 
	C456.089081,602.566223 456.029968,612.763306 455.199341,622.972290 
	C455.106812,621.193970 455.014282,619.415588 454.883179,616.772827 
	C454.946991,594.906433 455.049438,573.904419 455.151886,552.902405 
	C455.151886,552.902405 455.338745,552.736938 455.450195,552.680847 
z"/>
<path fill="#20313E" opacity="1.000000" stroke="none" 
	d="
M603.511658,679.998779 
	C602.371338,680.359436 600.766052,680.962280 599.160034,680.964294 
	C579.001831,680.989014 558.843506,680.926819 538.237549,680.720581 
	C537.789917,680.554199 537.861572,680.291687 537.861572,680.291748 
	C559.589844,680.181702 581.318115,680.071655 603.511658,679.998779 
z"/>
<path fill="#48515A" opacity="1.000000" stroke="none" 
	d="
M454.792206,553.160400 
	C455.049438,573.904419 454.946991,594.906433 454.845398,616.359497 
	C454.846252,616.810547 454.509918,616.865540 454.340393,616.881104 
	C454.107513,597.040100 454.035461,577.183655 454.000793,557.327087 
	C453.998505,556.024475 454.281982,554.721375 454.792206,553.160400 
z"/>
<path fill="#48515A" opacity="1.000000" stroke="none" 
	d="
M584.030029,625.278442 
	C584.017944,607.407837 584.046448,589.825684 584.107483,572.243774 
	C584.113770,570.431702 584.313782,568.620239 584.661072,566.484985 
	C584.884155,586.394653 584.869995,606.627869 584.818237,627.309448 
	C584.547058,627.027588 584.313538,626.297241 584.030029,625.278442 
z"/>
<path fill="#48515A" opacity="1.000000" stroke="none" 
	d="
M748.299683,333.932556 
	C747.817383,333.870483 747.765320,333.660034 747.758606,332.673523 
	C747.783081,313.002014 747.762268,294.106537 747.741455,275.211029 
	C747.788025,274.690399 747.834656,274.169769 747.951416,273.263306 
	C748.398376,273.876892 749.100952,274.875458 749.103638,275.875916 
	C749.154053,294.701508 749.124268,313.527313 749.090698,332.353058 
	C749.089844,332.830292 748.855347,333.307098 748.299683,333.932556 
z"/>
<path fill="#20313E" opacity="1.000000" stroke="none" 
	d="
M771.988770,376.503723 
	C771.697815,376.357239 771.220154,375.745300 771.222961,375.135590 
	C771.293640,360.018555 771.415161,344.901703 771.716370,329.428101 
	C771.945312,344.727325 771.985596,360.383270 771.988770,376.503723 
z"/>
<path fill="#60A725" opacity="1.000000" stroke="none" 
	d="
M597.317993,667.941528 
	C601.959778,667.063110 603.796143,664.050903 602.858948,659.191101 
	C602.115295,655.334900 601.293091,651.493896 600.232056,647.409058 
	C601.223389,647.104980 602.488464,647.037903 604.194702,646.947449 
	C604.194702,654.418640 604.194702,661.546753 604.194702,669.381653 
	C601.441528,668.807495 599.578308,668.418945 597.317993,667.941528 
z"/>
<path fill="#B4BDC5" opacity="1.000000" stroke="none" 
	d="
M497.924805,662.826050 
	C510.392487,662.658997 523.288940,662.494690 536.439148,662.636353 
	C523.913147,662.904480 511.133331,662.866699 497.924805,662.826050 
z"/>
<path fill="#48515A" opacity="1.000000" stroke="none" 
	d="
M584.950562,518.443604 
	C584.585022,516.971985 584.028809,515.044067 584.005554,513.109863 
	C583.883362,502.947418 583.895996,492.783386 583.953796,482.135071 
	C584.396362,482.648468 585.047607,483.645569 585.051392,484.645142 
	C585.093994,495.758057 585.036316,506.871307 584.950562,518.443604 
z"/>
<path fill="#48515A" opacity="1.000000" stroke="none" 
	d="
M539.195251,581.728271 
	C539.318909,592.843628 539.406921,604.403931 539.369202,616.320923 
	C539.215515,605.176086 539.187561,593.674622 539.195251,581.728271 
z"/>
<path fill="#B4BDC5" opacity="1.000000" stroke="none" 
	d="
M426.710388,672.155090 
	C426.512115,662.072571 426.300140,651.546814 426.056274,640.558960 
	C426.314972,640.896179 426.858276,641.695557 426.857697,642.494629 
	C426.850372,652.233704 426.763153,661.972778 426.710388,672.155090 
z"/>
<path fill="#48515A" opacity="1.000000" stroke="none" 
	d="
M503.536865,575.996948 
	C504.796509,575.579773 506.518555,574.905334 508.235413,574.918152 
	C517.248230,574.985413 526.259827,575.226624 535.589600,575.670410 
	C525.270508,575.974548 514.633728,576.015686 503.536865,575.996948 
z"/>
<path fill="#48515A" opacity="1.000000" stroke="none" 
	d="
M635.340820,683.681885 
	C635.154297,673.958557 635.307373,663.986877 635.605347,653.662659 
	C635.726990,663.351257 635.703735,673.392395 635.340820,683.681885 
z"/>
<path fill="#48515A" opacity="1.000000" stroke="none" 
	d="
M536.935120,426.592407 
	C528.006104,427.024078 518.885437,427.047333 509.283752,427.024170 
	C509.308472,426.616455 509.815277,425.939026 510.319641,425.940857 
	C519.127808,425.972473 527.935608,426.087311 536.935120,426.592407 
z"/>
<path fill="#1D303C" opacity="1.000000" stroke="none" 
	d="
M382.572327,575.650024 
	C381.734680,576.513916 380.997314,577.124695 379.925720,578.012268 
	C379.262726,574.819824 378.639130,571.817139 377.999298,568.427795 
	C379.546234,570.493042 381.109436,572.944946 382.572327,575.650024 
z"/>
<path fill="#5AA413" opacity="1.000000" stroke="none" 
	d="
M736.829346,810.665405 
	C734.670227,812.356445 732.585266,812.566711 731.131042,809.311523 
	C732.913147,809.432861 734.774963,809.895020 736.829346,810.665405 
z"/>
<path fill="#48515A" opacity="1.000000" stroke="none" 
	d="
M537.431335,680.272339 
	C537.861572,680.291687 537.789917,680.554199 537.752197,680.683472 
	C535.164551,680.708923 532.614502,680.605103 529.728760,680.398804 
	C531.929016,680.281860 534.465088,680.267395 537.431335,680.272339 
z"/>
<path fill="#1D303C" opacity="1.000000" stroke="none" 
	d="
M377.886658,567.686829 
	C377.300781,566.899719 376.669434,565.784363 376.033813,564.312988 
	C376.633392,565.090881 377.237274,566.224731 377.886658,567.686829 
z"/>
<path fill="#1E313D" opacity="1.000000" stroke="none" 
	d="
M384.746155,369.012024 
	C384.809601,369.181763 384.608795,369.440369 384.195160,369.840149 
	C384.179230,369.711395 384.345764,369.417908 384.746155,369.012024 
z"/>
<path fill="#60A725" opacity="1.000000" stroke="none" 
	d="
M323.955627,803.747803 
	C323.858337,803.958130 323.671448,803.959351 323.203979,803.956848 
	C323.237579,803.815002 323.551788,803.676880 323.955627,803.747803 
z"/>
<path fill="#48515A" opacity="1.000000" stroke="none" 
	d="
M570.268738,865.133850 
	C570.172546,864.911133 570.348450,864.569702 570.790527,864.112915 
	C570.884766,864.336670 570.712830,864.675964 570.268738,865.133850 
z"/>
<path fill="#111E27" opacity="1.000000" stroke="none" 
	d="
M747.571655,275.564758 
	C747.762268,294.106537 747.783081,313.002014 747.745605,332.348572 
	C747.518066,332.334961 747.199768,331.869934 747.200989,331.405762 
	C747.249878,312.909973 747.327759,294.414246 747.571655,275.564758 
z"/>
<path fill="#111E27" opacity="1.000000" stroke="none" 
	d="
M755.464722,320.791077 
	C755.103821,307.974457 755.064087,294.958344 755.074402,281.476288 
	C755.734924,282.261292 756.859436,283.505798 756.875305,284.764282 
	C757.013000,295.660583 756.982910,306.559631 756.898254,317.457062 
	C756.890137,318.504730 756.173584,319.546875 755.464722,320.791077 
z"/>
<path fill="#111E27" opacity="1.000000" stroke="none" 
	d="
M755.035400,274.800171 
	C754.553162,274.711670 754.176697,274.393951 753.853760,273.711212 
	C754.318604,273.754425 754.729858,274.162689 755.035400,274.800171 
z"/>
<path fill="#111E27" opacity="1.000000" stroke="none" 
	d="
M755.113770,378.857788 
	C755.067200,378.976959 754.947754,378.499664 754.997681,378.258911 
	C755.195496,378.248779 755.233032,378.488953 755.113770,378.857788 
z"/>
<path fill="#000000" opacity="1.000000" stroke="none" 
	d="
M404.009369,321.007874 
	C404.041199,320.542328 404.053131,320.069519 404.106567,319.601440 
	C404.113831,319.537750 404.328522,319.497742 404.447144,319.446777 
	C404.415314,319.867249 404.383484,320.287659 404.173462,320.852722 
	C403.995300,320.997314 404.002563,321.002136 404.009369,321.007874 
z"/>
<path fill="#111E27" opacity="1.000000" stroke="none" 
	d="
M476.465454,862.290771 
	C496.061310,862.094360 516.007324,862.092346 536.408691,862.108154 
	C535.589294,862.417175 534.315125,862.958496 533.039429,862.962036 
	C515.106079,863.012573 497.172516,862.996338 479.239014,862.963806 
	C478.430908,862.962341 477.623383,862.651733 476.465454,862.290771 
z"/>
<path fill="#111E27" opacity="1.000000" stroke="none" 
	d="
M539.415649,862.291809 
	C540.791382,862.075012 542.458130,862.035461 544.542236,862.014282 
	C543.208618,862.178101 541.457642,862.323608 539.415649,862.291809 
z"/>
<path fill="#53A70B" opacity="1.000000" stroke="none" 
	d="
M316.336517,811.003540 
	C314.687073,810.845581 313.453827,810.687988 311.834290,810.480957 
	C315.780975,807.369873 317.700562,807.333069 323.770630,810.655945 
	C321.431305,810.771912 319.092010,810.887817 316.336517,811.003540 
z"/>
</svg>